<svg xmlns="http://www.w3.org/2000/svg" width="780" height="256" viewBox="0 0 780 256">
<g>  <defs>
    <linearGradient id="bg" x1="0" y1="0" x2="1" y2="1">
      <stop offset="0" stop-color="#0e4f4d"/>
      <stop offset="1" stop-color="#0a2f33"/>
    </linearGradient>
    <linearGradient id="charge" x1="0" y1="1" x2="0" y2="0">
      <stop offset="0" stop-color="#22c55e"/>
      <stop offset="1" stop-color="#86efac"/>
    </linearGradient>
  </defs>
  <rect width="256" height="256" rx="56" fill="url(#bg)"/>
  <!-- sun -->
  <circle cx="194" cy="66" r="22" fill="#fbbf24"/>
  <g stroke="#fbbf24" stroke-width="7" stroke-linecap="round">
    <line x1="194" y1="28" x2="194" y2="34"/>
    <line x1="194" y1="98" x2="194" y2="104"/>
    <line x1="226" y1="66" x2="232" y2="66"/>
    <line x1="167" y1="39" x2="171" y2="43"/>
    <line x1="217" y1="89" x2="221" y2="93"/>
    <line x1="221" y1="39" x2="217" y2="43"/>
  </g>
  <!-- battery -->
  <rect x="86" y="62" width="36" height="18" rx="6" fill="#e6fffb"/>
  <rect x="50" y="78" width="108" height="146" rx="22" fill="none" stroke="#e6fffb" stroke-width="12"/>
  <rect x="66" y="138" width="76" height="70" rx="10" fill="url(#charge)"/>
  <!-- bolt -->
  <path d="M112 92 L78 158 H104 L94 206 L132 134 H106 Z" fill="#fbbf24" stroke="#0a2f33" stroke-width="5" stroke-linejoin="round"/>
</g>
<text x="288" y="178" font-family="DejaVu Sans" font-weight="bold" font-size="150" letter-spacing="-3" fill="#e6fffb">slems</text>
</svg>
